<mxfile host="app.diagrams.net" modified="2023-01-29T06:16:43.530Z" agent="5.0 (Macintosh; Intel Mac OS X 10_15_7) AppleWebKit/537.36 (KHTML, like Gecko) Chrome/109.0.0.0 Safari/537.36" etag="McO9Ug8uEKEIrI2hnLpo" version="20.8.13" type="github">
  <diagram id="rFeODckSu-qoI8IxhJ4A" name="Page-1">
    <mxGraphModel dx="1937" dy="759" grid="1" gridSize="10" guides="1" tooltips="1" connect="1" arrows="1" fold="1" page="0" pageScale="1" pageWidth="850" pageHeight="1100" math="0" shadow="0">
      <root>
        <mxCell id="0" />
        <mxCell id="1" parent="0" />
        <mxCell id="sHhL3jPO2kCyQePRyJuF-3" style="edgeStyle=orthogonalEdgeStyle;rounded=1;orthogonalLoop=1;jettySize=auto;html=1;" edge="1" parent="1" source="sHhL3jPO2kCyQePRyJuF-1" target="sHhL3jPO2kCyQePRyJuF-2">
          <mxGeometry relative="1" as="geometry" />
        </mxCell>
        <mxCell id="sHhL3jPO2kCyQePRyJuF-1" value="App" style="rounded=0;whiteSpace=wrap;html=1;" vertex="1" parent="1">
          <mxGeometry x="-440" y="160" width="120" height="60" as="geometry" />
        </mxCell>
        <mxCell id="sHhL3jPO2kCyQePRyJuF-5" style="edgeStyle=orthogonalEdgeStyle;rounded=1;orthogonalLoop=1;jettySize=auto;html=1;entryX=0;entryY=0.5;entryDx=0;entryDy=0;" edge="1" parent="1" source="sHhL3jPO2kCyQePRyJuF-2" target="sHhL3jPO2kCyQePRyJuF-4">
          <mxGeometry relative="1" as="geometry" />
        </mxCell>
        <mxCell id="sHhL3jPO2kCyQePRyJuF-6" style="edgeStyle=orthogonalEdgeStyle;rounded=1;orthogonalLoop=1;jettySize=auto;html=1;" edge="1" parent="1" source="sHhL3jPO2kCyQePRyJuF-2" target="sHhL3jPO2kCyQePRyJuF-1">
          <mxGeometry relative="1" as="geometry" />
        </mxCell>
        <mxCell id="sHhL3jPO2kCyQePRyJuF-2" value="Load&lt;br&gt;Balancer" style="rounded=0;whiteSpace=wrap;html=1;fillColor=#647687;strokeColor=#314354;fontColor=#ffffff;" vertex="1" parent="1">
          <mxGeometry x="-240" y="85" width="60" height="210" as="geometry" />
        </mxCell>
        <mxCell id="sHhL3jPO2kCyQePRyJuF-7" style="edgeStyle=orthogonalEdgeStyle;rounded=1;orthogonalLoop=1;jettySize=auto;html=1;entryX=1;entryY=0.5;entryDx=0;entryDy=0;" edge="1" parent="1" source="sHhL3jPO2kCyQePRyJuF-4" target="sHhL3jPO2kCyQePRyJuF-2">
          <mxGeometry relative="1" as="geometry" />
        </mxCell>
        <mxCell id="sHhL3jPO2kCyQePRyJuF-4" value="User Service" style="rounded=1;whiteSpace=wrap;html=1;" vertex="1" parent="1">
          <mxGeometry x="-120" y="80" width="120" height="60" as="geometry" />
        </mxCell>
        <mxCell id="sHhL3jPO2kCyQePRyJuF-8" value="" style="rounded=0;whiteSpace=wrap;html=1;" vertex="1" parent="1">
          <mxGeometry x="80" y="80" width="280" height="120" as="geometry" />
        </mxCell>
        <mxCell id="sHhL3jPO2kCyQePRyJuF-9" value="" style="shape=cylinder3;whiteSpace=wrap;html=1;boundedLbl=1;backgroundOutline=1;size=15;" vertex="1" parent="1">
          <mxGeometry x="200" y="190" width="60" height="80" as="geometry" />
        </mxCell>
      </root>
    </mxGraphModel>
  </diagram>
</mxfile>
